<svg width="15" height="10" viewBox="0 0 15 10" fill="none" xmlns="http://www.w3.org/2000/svg">
<path d="M7.49999 9.34274C7.32777 9.34274 7.16072 9.31045 6.99883 9.24586C6.83694 9.18128 6.7026 9.09517 6.59583 8.98753L0.654158 3.04587C0.417352 2.80906 0.29895 2.50767 0.29895 2.1417C0.29895 1.77573 0.417352 1.47434 0.654158 1.23753C0.890964 1.00073 1.19235 0.882324 1.55833 0.882324C1.9243 0.882324 2.22569 1.00073 2.46249 1.23753L7.49999 6.27503L12.5375 1.23753C12.7743 1.00073 13.0757 0.882324 13.4417 0.882324C13.8076 0.882324 14.109 1.00073 14.3458 1.23753C14.5826 1.47434 14.701 1.77573 14.701 2.1417C14.701 2.50767 14.5826 2.80906 14.3458 3.04587L8.40416 8.98753C8.27499 9.1167 8.13506 9.20841 7.98437 9.26266C7.83367 9.31691 7.67221 9.3436 7.49999 9.34274Z" fill="#1E1E1E"/>
</svg>
