<svg width="75" height="75" viewBox="0 0 75 75" fill="none" xmlns="http://www.w3.org/2000/svg">
<path d="M71.7971 31.3133C69.0027 14.896 54.6812 2.43744 37.4488 2.43744C20.2165 2.43744 5.89496 14.896 3.10052 31.3133L37.4488 14.0809L71.7971 31.3133ZM3.10052 43.4225C5.89496 59.8399 20.2165 72.2984 37.4488 72.2984C54.6812 72.2984 69.0027 59.8399 71.7971 43.4225L37.4488 60.6549L3.10052 43.4225Z" fill="#699635"/>
<path d="M37.4488 14.0809L3.10049 31.3133C2.75118 33.2927 2.51831 35.2721 2.51831 37.3679C2.51831 39.4637 2.75118 41.4431 3.10049 43.4225L37.4488 60.6549L71.7971 43.4225C72.1464 41.4431 72.3793 39.4637 72.3793 37.3679C72.3793 35.2721 72.1464 33.2927 71.7971 31.3133L37.4488 14.0809Z" fill="#FFE62E"/>
<path d="M30.4627 33.1763C26.7368 33.1763 23.2438 33.9913 20.1 35.3885C19.9836 36.0871 19.9836 36.6693 19.9836 37.3679C19.9836 47.032 27.7847 54.8332 37.4488 54.8332C43.9692 54.8332 49.6745 51.2237 52.7018 45.9841C48.3937 38.4158 40.0104 33.1763 30.4627 33.1763Z" fill="#428BC1"/>
<path d="M54.6812 40.1624C54.7976 39.2309 54.9141 38.2994 54.9141 37.3679C54.9141 27.7038 47.1129 19.9027 37.4488 19.9027C30.5792 19.9027 24.641 23.8615 21.7301 29.6832C24.5245 28.8682 27.4354 28.4024 30.4627 28.4024C40.3597 28.4024 49.0923 33.0598 54.6812 40.1624Z" fill="#428BC1"/>
<path d="M30.4627 28.4024C27.4354 28.4024 24.5246 28.8681 21.7301 29.6832C20.9151 31.4297 20.3329 33.2927 20.1 35.3885C23.2438 33.9913 26.7368 33.1762 30.4627 33.1762C40.0104 33.1762 48.3937 38.2994 52.7018 45.8676C53.7497 44.1211 54.3319 42.1417 54.6812 40.1623C49.0923 33.0598 40.3597 28.4024 30.4627 28.4024Z" fill="white"/>
<path d="M25.8053 38.5323C26.4484 38.5323 26.9697 38.011 26.9697 37.3679C26.9697 36.7248 26.4484 36.2036 25.8053 36.2036C25.1623 36.2036 24.641 36.7248 24.641 37.3679C24.641 38.011 25.1623 38.5323 25.8053 38.5323Z" fill="white"/>
<path d="M30.4628 45.5183C31.1058 45.5183 31.6271 44.997 31.6271 44.354C31.6271 43.7109 31.1058 43.1896 30.4628 43.1896C29.8197 43.1896 29.2984 43.7109 29.2984 44.354C29.2984 44.997 29.8197 45.5183 30.4628 45.5183Z" fill="white"/>
<path d="M37.4488 45.5183C38.0919 45.5183 38.6132 44.997 38.6132 44.354C38.6132 43.7109 38.0919 43.1896 37.4488 43.1896C36.8058 43.1896 36.2845 43.7109 36.2845 44.354C36.2845 44.997 36.8058 45.5183 37.4488 45.5183Z" fill="white"/>
<path d="M37.4488 50.1757C38.0919 50.1757 38.6132 49.6544 38.6132 49.0114C38.6132 48.3683 38.0919 47.847 37.4488 47.847C36.8058 47.847 36.2845 48.3683 36.2845 49.0114C36.2845 49.6544 36.8058 50.1757 37.4488 50.1757Z" fill="white"/>
<path d="M46.7637 45.5183C47.4067 45.5183 47.928 44.997 47.928 44.354C47.928 43.7109 47.4067 43.1896 46.7637 43.1896C46.1206 43.1896 45.5993 43.7109 45.5993 44.354C45.5993 44.997 46.1206 45.5183 46.7637 45.5183Z" fill="white"/>
<path d="M46.7637 50.1757C47.4067 50.1757 47.928 49.6544 47.928 49.0114C47.928 48.3683 47.4067 47.847 46.7637 47.847C46.1206 47.847 45.5993 48.3683 45.5993 49.0114C45.5993 49.6544 46.1206 50.1757 46.7637 50.1757Z" fill="white"/>
<path d="M42.1062 47.847C42.7493 47.847 43.2706 47.3257 43.2706 46.6827C43.2706 46.0396 42.7493 45.5183 42.1062 45.5183C41.4632 45.5183 40.9419 46.0396 40.9419 46.6827C40.9419 47.3257 41.4632 47.847 42.1062 47.847Z" fill="white"/>
<path d="M25.8053 43.1896C26.4484 43.1896 26.9697 42.6683 26.9697 42.0253C26.9697 41.3822 26.4484 40.8609 25.8053 40.8609C25.1623 40.8609 24.641 41.3822 24.641 42.0253C24.641 42.6683 25.1623 43.1896 25.8053 43.1896Z" fill="white"/>
</svg>
