<svg width="75" height="76" viewBox="0 0 75 76" fill="none" xmlns="http://www.w3.org/2000/svg">
<mask id="mask0_1_57" style="mask-type:alpha" maskUnits="userSpaceOnUse" x="2" y="3" width="71" height="71">
<path d="M37.5511 73.1882C56.8427 73.1882 72.4816 57.5493 72.4816 38.2577C72.4816 18.9661 56.8427 3.32721 37.5511 3.32721C18.2596 3.32721 2.62067 18.9661 2.62067 38.2577C2.62067 57.5493 18.2596 73.1882 37.5511 73.1882Z" fill="white"/>
</mask>
<g mask="url(#mask0_1_57)">
<path d="M37.5511 3.32721H72.4816V12.0598L68.1153 16.4261L72.4816 20.7924V29.5251L68.1153 33.8914L72.4816 38.2577V46.9903L68.1153 51.3566L72.4816 55.7229V64.4555L37.5511 68.8219L2.62067 64.4555V55.7229L6.98698 51.3566L2.62067 46.9903V38.2577L37.5511 3.32721Z" fill="#EEEEEE"/>
<path d="M33.1848 12.0598H72.4816V20.7924H33.1848V12.0598ZM33.1848 29.5251H72.4816V38.2577H37.5511L33.1848 29.5251ZM2.62067 46.9903H72.4816V55.7229H2.62067V46.9903ZM2.62067 64.4555H72.4816V73.1881H2.62067V64.4555Z" fill="#D80027"/>
<path d="M2.62067 3.32721H37.5511V38.2577H2.62067V3.32721Z" fill="#0052B4"/>
<path d="M28.1363 36.4839L35.9138 30.8895H26.3625L34.14 36.4839L31.1382 27.3419L28.1363 36.4839ZM17.0841 36.4839L24.8616 30.8895H15.3103L23.0878 36.4839L20.0859 27.3419L17.0841 36.4839ZM6.03187 36.4839L13.8094 30.8895H4.25806L12.0355 36.4839L9.03371 27.3419L6.03187 36.4839ZM28.1363 25.4316L35.9138 19.8373H26.3625L34.14 25.4316L31.1382 16.2897L28.1363 25.4316ZM17.0841 25.4316L24.8616 19.8373H15.3103L23.0878 25.4316L20.0859 16.2897L17.0841 25.4316ZM6.03187 25.4316L13.8094 19.8373H4.25806L12.0355 25.4316L9.03371 16.2897L6.03187 25.4316ZM28.1363 14.243L35.9138 8.64864H26.3625L34.14 14.243L31.1382 5.10101L28.1363 14.243ZM17.0841 14.243L24.8616 8.64864H15.3103L23.0878 14.243L20.0859 5.10101L17.0841 14.243ZM6.03187 14.243L13.8094 8.64864H4.25806L12.0355 14.243L9.03371 5.10101L6.03187 14.243Z" fill="#EEEEEE"/>
</g>
</svg>
